<svg width="1200" height="675" viewBox="0 0 1200 675" fill="none" xmlns="http://www.w3.org/2000/svg">
  <rect width="1200" height="675" fill="#08111f"/>
  <defs>
    <radialGradient id="g" cx="0" cy="0" r="1" gradientUnits="userSpaceOnUse" gradientTransform="translate(650 250) rotate(110) scale(620 460)">
      <stop stop-color="#22d3ee" stop-opacity="0.42"/>
      <stop offset="1" stop-color="#08111f" stop-opacity="0"/>
    </radialGradient>
  </defs>
  <rect width="1200" height="675" fill="url(#g)"/>
  <rect x="310" y="220" width="580" height="270" rx="32" fill="#0b1b2f" stroke="#164e63" stroke-width="2"/>
  <path d="M380 270H820V455H380V270Z" fill="#0f2a44" opacity="0.8"/>
  <path d="M415 305H785" stroke="#67e8f9" stroke-opacity="0.28" stroke-width="18" stroke-linecap="round"/>
  <path d="M415 355H720" stroke="#e0f2fe" stroke-opacity="0.16" stroke-width="18" stroke-linecap="round"/>
  <path d="M415 405H760" stroke="#e0f2fe" stroke-opacity="0.16" stroke-width="18" stroke-linecap="round"/>
  <path d="M455 210 L600 120 L745 210" stroke="#22d3ee" stroke-opacity="0.45" stroke-width="4" stroke-linecap="round"/>
  <path d="M455 210 H745" stroke="#22d3ee" stroke-opacity="0.45" stroke-width="4" stroke-linecap="round"/>
  <circle cx="600" cy="155" r="38" fill="#0ea5e9" opacity="0.2" stroke="#67e8f9" stroke-width="3"/>
  <path d="M585 155H615 M600 140V170" stroke="#67e8f9" stroke-width="4" stroke-linecap="round"/>
  <g opacity="0.75">
    <circle cx="270" cy="165" r="7" fill="#67e8f9"/>
    <circle cx="940" cy="170" r="7" fill="#67e8f9"/>
    <circle cx="975" cy="520" r="7" fill="#38bdf8"/>
    <path d="M270 165 C395 225 488 85 600 155 S820 250 940 170 S985 320 975 520" stroke="#22d3ee" stroke-opacity="0.22" stroke-width="2"/>
  </g>
  <rect x="515" y="505" width="170" height="34" rx="17" fill="#22d3ee" opacity="0.2"/>
</svg>