<svg width="1200" height="675" viewBox="0 0 1200 675" fill="none" xmlns="http://www.w3.org/2000/svg">
  <rect width="1200" height="675" fill="#08111f"/>
  <defs>
    <radialGradient id="r" cx="0" cy="0" r="1" gradientUnits="userSpaceOnUse" gradientTransform="translate(735 190) rotate(130) scale(620 430)">
      <stop stop-color="#22d3ee" stop-opacity="0.45"/>
      <stop offset="1" stop-color="#08111f" stop-opacity="0"/>
    </radialGradient>
  </defs>
  <rect width="1200" height="675" fill="url(#r)"/>
  <rect x="235" y="160" width="730" height="365" rx="34" fill="#0b1b2f" stroke="#164e63" stroke-width="2"/>
  <rect x="320" y="250" width="290" height="185" rx="18" fill="#0f2a44" stroke="#1e7894"/>
  <rect x="350" y="285" width="210" height="18" rx="9" fill="#67e8f9" opacity="0.35"/>
  <rect x="350" y="330" width="170" height="18" rx="9" fill="#e0f2fe" opacity="0.18"/>
  <rect x="350" y="375" width="225" height="18" rx="9" fill="#e0f2fe" opacity="0.18"/>
  <rect x="675" y="220" width="210" height="90" rx="18" fill="#0ea5e9" opacity="0.24"/>
  <rect x="675" y="340" width="210" height="110" rx="18" fill="#22d3ee" opacity="0.16"/>
  <path d="M650 270 H675 M610 350 H675 M780 310 V340" stroke="#67e8f9" stroke-opacity="0.5" stroke-width="3"/>
  <circle cx="650" cy="270" r="9" fill="#22d3ee"/>
  <circle cx="610" cy="350" r="9" fill="#22d3ee"/>
  <circle cx="780" cy="310" r="9" fill="#67e8f9"/>
  <path d="M265 545 H935" stroke="#e0f2fe" stroke-opacity="0.2" stroke-width="3"/>
  <rect x="470" y="480" width="260" height="28" rx="14" fill="#38bdf8" opacity="0.22"/>
  <circle cx="232" cy="135" r="5" fill="#67e8f9" opacity="0.7"/>
  <circle cx="998" cy="520" r="5" fill="#67e8f9" opacity="0.7"/>
  <path d="M232 135 C360 240 462 105 590 210 S830 430 998 520" stroke="#22d3ee" stroke-opacity="0.25" stroke-width="2"/>
</svg>