<svg width="1200" height="675" viewBox="0 0 1200 675" fill="none" xmlns="http://www.w3.org/2000/svg">
  <rect width="1200" height="675" fill="#08111f"/>
  <defs>
    <radialGradient id="g1" cx="0" cy="0" r="1" gradientUnits="userSpaceOnUse" gradientTransform="translate(820 180) rotate(135) scale(600 420)">
      <stop stop-color="#22d3ee" stop-opacity="0.55"/>
      <stop offset="1" stop-color="#08111f" stop-opacity="0"/>
    </radialGradient>
    <linearGradient id="panel" x1="260" y1="135" x2="920" y2="540" gradientUnits="userSpaceOnUse">
      <stop stop-color="#0f2a44"/>
      <stop offset="1" stop-color="#0b1628"/>
    </linearGradient>
  </defs>
  <rect width="1200" height="675" fill="url(#g1)"/>
  <circle cx="188" cy="137" r="5" fill="#67e8f9" opacity="0.8"/>
  <circle cx="1005" cy="490" r="6" fill="#38bdf8" opacity="0.7"/>
  <circle cx="995" cy="126" r="4" fill="#67e8f9" opacity="0.7"/>
  <path d="M188 137 C340 230 445 80 590 205 S855 312 1005 490" stroke="#22d3ee" stroke-opacity="0.26" stroke-width="2"/>
  <rect x="240" y="125" width="720" height="425" rx="34" fill="url(#panel)" stroke="#164e63" stroke-width="2"/>
  <rect x="305" y="185" width="420" height="42" rx="10" fill="#e0f2fe" opacity="0.16"/>
  <rect x="305" y="255" width="585" height="18" rx="9" fill="#67e8f9" opacity="0.32"/>
  <rect x="305" y="300" width="535" height="18" rx="9" fill="#bae6fd" opacity="0.18"/>
  <rect x="305" y="345" width="455" height="18" rx="9" fill="#bae6fd" opacity="0.18"/>
  <rect x="305" y="408" width="240" height="76" rx="18" fill="#0ea5e9" opacity="0.22"/>
  <path d="M760 210 L830 255 L760 300 L690 255 Z" fill="#22d3ee" opacity="0.24"/>
  <circle cx="760" cy="255" r="38" stroke="#67e8f9" stroke-width="3" opacity="0.6"/>
  <path d="M760 217 V293 M722 255 H798" stroke="#67e8f9" stroke-opacity="0.55" stroke-width="3"/>
  <g opacity="0.18" stroke="#e0f2fe">
    <path d="M120 585H1080"/>
    <path d="M160 80V610"/>
    <path d="M1040 80V610"/>
  </g>
</svg>