<svg width="1200" height="675" viewBox="0 0 1200 675" fill="none" xmlns="http://www.w3.org/2000/svg">
  <rect width="1200" height="675" fill="#07111f"/>
  <defs>
    <radialGradient id="glow" cx="0" cy="0" r="1" gradientUnits="userSpaceOnUse" gradientTransform="translate(760 180) rotate(120) scale(620 460)">
      <stop stop-color="#fbbf24" stop-opacity="0.35"/>
      <stop offset="0.45" stop-color="#22d3ee" stop-opacity="0.28"/>
      <stop offset="1" stop-color="#07111f" stop-opacity="0"/>
    </radialGradient>
  </defs>
  <rect width="1200" height="675" fill="url(#glow)"/>
  <rect x="220" y="145" width="760" height="390" rx="36" fill="#0b1b2f" stroke="#164e63" stroke-width="2"/>
  <path d="M305 445 L430 360 L548 388 L685 285 L840 210" stroke="#facc15" stroke-width="10" stroke-linecap="round" stroke-linejoin="round"/>
  <path d="M805 210H840V245" stroke="#facc15" stroke-width="10" stroke-linecap="round" stroke-linejoin="round"/>
  <rect x="300" y="250" width="70" height="210" rx="14" fill="#0ea5e9" opacity="0.35"/>
  <rect x="410" y="320" width="70" height="140" rx="14" fill="#22d3ee" opacity="0.28"/>
  <rect x="520" y="295" width="70" height="165" rx="14" fill="#38bdf8" opacity="0.24"/>
  <rect x="630" y="230" width="70" height="230" rx="14" fill="#facc15" opacity="0.22"/>
  <circle cx="895" cy="405" r="52" fill="#f59e0b" opacity="0.18" stroke="#facc15" stroke-width="3"/>
  <circle cx="895" cy="405" r="28" stroke="#fde68a" stroke-width="3" opacity="0.5"/>
  <path d="M178 180 C330 65 418 210 570 120 S820 104 1015 170" stroke="#22d3ee" stroke-opacity="0.24" stroke-width="2"/>
  <circle cx="178" cy="180" r="5" fill="#22d3ee" opacity="0.7"/>
  <circle cx="570" cy="120" r="5" fill="#67e8f9" opacity="0.7"/>
  <circle cx="1015" cy="170" r="5" fill="#22d3ee" opacity="0.7"/>
</svg>