<svg width="1200" height="675" viewBox="0 0 1200 675" fill="none" xmlns="http://www.w3.org/2000/svg">
  <rect width="1200" height="675" fill="#07111f"/>
  <defs>
    <radialGradient id="glow" cx="0" cy="0" r="1" gradientUnits="userSpaceOnUse" gradientTransform="translate(610 260) rotate(90) scale(620 520)">
      <stop stop-color="#22d3ee" stop-opacity="0.38"/>
      <stop offset="1" stop-color="#07111f" stop-opacity="0"/>
    </radialGradient>
  </defs>
  <rect width="1200" height="675" fill="url(#glow)"/>
  <rect x="210" y="150" width="780" height="390" rx="38" fill="#0b1b2f" stroke="#164e63" stroke-width="2"/>
  <circle cx="600" cy="330" r="72" fill="#0ea5e9" opacity="0.18" stroke="#67e8f9" stroke-width="3"/>
  <circle cx="600" cy="330" r="34" fill="#22d3ee" opacity="0.22"/>
  <g stroke="#67e8f9" stroke-opacity="0.35" stroke-width="3">
    <path d="M600 258V190"/>
    <path d="M600 402V480"/>
    <path d="M528 330H420"/>
    <path d="M672 330H780"/>
    <path d="M550 280L465 225"/>
    <path d="M650 280L735 225"/>
    <path d="M550 380L465 435"/>
    <path d="M650 380L735 435"/>
  </g>
  <g fill="#0f2a44" stroke="#1e7894" stroke-width="2">
    <rect x="515" y="170" width="170" height="70" rx="18"/>
    <rect x="515" y="450" width="170" height="70" rx="18"/>
    <rect x="300" y="295" width="170" height="70" rx="18"/>
    <rect x="730" y="295" width="170" height="70" rx="18"/>
    <rect x="340" y="195" width="170" height="70" rx="18"/>
    <rect x="690" y="195" width="170" height="70" rx="18"/>
    <rect x="340" y="395" width="170" height="70" rx="18"/>
    <rect x="690" y="395" width="170" height="70" rx="18"/>
  </g>
  <g fill="#67e8f9" opacity="0.34">
    <rect x="540" y="198" width="120" height="12" rx="6"/>
    <rect x="540" y="478" width="120" height="12" rx="6"/>
    <rect x="325" y="323" width="120" height="12" rx="6"/>
    <rect x="755" y="323" width="120" height="12" rx="6"/>
    <rect x="365" y="223" width="120" height="12" rx="6"/>
    <rect x="715" y="223" width="120" height="12" rx="6"/>
    <rect x="365" y="423" width="120" height="12" rx="6"/>
    <rect x="715" y="423" width="120" height="12" rx="6"/>
  </g>
</svg>